<?xml version="1.0" standalone="no"?>
<!DOCTYPE svg PUBLIC "-//W3C//DTD SVG 20010904//EN"
 "http://www.w3.org/TR/2001/REC-SVG-20010904/DTD/svg10.dtd">
<svg version="1.0" xmlns="http://www.w3.org/2000/svg"
 width="366.000000pt" height="39.000000pt" viewBox="0 0 366.000000 39.000000"
 preserveAspectRatio="xMidYMid meet">

<g transform="translate(0.000000,39.000000) scale(0.100000,-0.100000)"
fill="#000000" stroke="none">
<path d="M1190 290 c-38 -38 -19 -109 35 -134 47 -23 152 -46 215 -47 l55 -1
-45 -15 c-30 -9 -72 -13 -125 -10 -69 3 -90 9 -148 40 -81 43 -109 46 -142 12
-29 -28 -32 -57 -9 -79 19 -20 38 -20 54 -1 14 17 7 45 -12 45 -10 0 -9 -3 1
-9 18 -12 6 -43 -15 -39 -31 6 -39 33 -20 63 16 24 23 27 61 23 24 -3 57 -15
73 -27 80 -57 181 -65 318 -26 l88 26 47 -21 c56 -24 102 -26 119 -5 16 20 6
43 -25 57 -20 9 -39 9 -83 0 -30 -6 -57 -10 -59 -9 -6 7 160 137 182 143 55
14 92 -44 60 -94 -18 -27 -18 -27 2 -9 11 9 22 15 25 12 2 -3 3 9 0 25 -5 37
20 70 54 70 12 0 42 -16 66 -35 24 -19 64 -51 90 -72 26 -20 46 -38 45 -40 -2
-1 -31 3 -65 9 -79 15 -115 2 -110 -40 2 -22 8 -28 35 -30 17 -2 55 7 83 19
l51 22 90 -28 c125 -38 200 -34 299 18 105 55 166 47 158 -20 -2 -23 -8 -28
-30 -28 -14 1 -24 -3 -22 -7 8 -12 38 -10 52 4 19 19 14 66 -8 88 -29 29 -66
25 -154 -20 -72 -37 -85 -40 -155 -39 -42 0 -94 6 -116 14 l-40 13 59 1 c81 1
214 38 243 67 29 29 32 93 5 117 -45 41 -142 6 -294 -104 -66 -48 -62 -49
-176 42 -80 65 -117 74 -150 39 l-19 -20 -18 20 c-35 39 -75 26 -170 -53 -93
-77 -91 -77 -171 -20 -159 113 -238 139 -284 93z m144 -19 c31 -17 86 -51 123
-78 l67 -47 -35 -8 c-66 -14 -259 33 -286 69 -20 26 -15 60 9 77 32 23 59 20
122 -13z m1119 15 c22 -17 22 -68 -1 -89 -18 -16 -136 -51 -207 -61 -22 -3
-55 -2 -73 2 l-34 7 70 48 c147 101 205 123 245 93z m-726 -172 c12 -32 -14
-39 -73 -20 -66 21 -58 36 19 36 34 0 49 -4 54 -16z m321 8 c15 -10 -18 -27
-71 -37 -37 -7 -53 5 -43 30 6 16 91 21 114 7z"/>
<path d="M75 133 l-29 -26 32 -28 32 -29 50 25 49 25 391 0 c253 0 390 4 390
10 0 6 -138 10 -395 10 -376 0 -398 1 -435 20 -49 25 -49 25 -85 -7z"/>
<path d="M3500 140 c-33 -18 -60 -19 -432 -20 -259 0 -398 -4 -398 -10 0 -6
137 -10 390 -10 l391 0 49 -25 50 -25 32 30 33 29 -30 25 c-36 30 -40 31 -85
6z"/>
<path d="M1822 126 c-6 -14 -16 -26 -22 -26 -6 0 -1 -13 11 -29 l21 -29 23 26
c20 23 21 28 9 35 -9 5 -19 18 -23 29 -7 18 -8 18 -19 -6z"/>
<path d="M2588 93 c7 -3 16 -2 19 1 4 3 -2 6 -13 5 -11 0 -14 -3 -6 -6z"/>
</g>
</svg>
